<svg width="48" height="54" viewBox="0 0 48 54" fill="none" xmlns="http://www.w3.org/2000/svg">
<path d="M43.5326 5.96728C46.9953 6.42315 44.8733 20.9671 44.3329 25.0721C43.9183 28.2213 40.4411 31.4573 38.8454 32.794C38.8236 33.9857 38.727 34.7334 38.7252 34.7471C38.7252 34.7471 37.7528 42.1347 34.4389 44.9192C33.0719 46.0679 29.3537 48.488 27.0864 50.3931C25.7483 51.5165 21.3047 49.9759 21.2179 48.4395L21.2226 48.2914C21.0137 49.8741 16.0482 50.2818 15.0147 48.8038C13.3178 46.3769 10.3537 43.077 9.33041 41.6136C6.8501 38.0663 7.82195 30.6786 7.82195 30.6786C7.82423 30.6615 7.92471 29.915 8.21134 28.7609C7.01589 27.0565 4.49582 23.0309 4.91038 19.882C5.45079 15.7772 7.16478 1.18074 10.6271 1.63519C13.9804 2.07666 19.0697 15.901 19.0937 19.011L30.8583 20.5599C31.6864 17.5621 40.1791 5.5266 43.5326 5.96728Z" fill="#EBEBEB"/>
<path fill-rule="evenodd" clip-rule="evenodd" d="M7.8222 30.679C7.8222 30.679 7.92085 29.9297 8.2103 28.7637C7.01529 27.0602 4.49485 23.0321 4.90954 19.8823C4.93526 19.6869 4.96364 19.4678 4.99475 19.2276C5.61711 14.4221 7.32935 1.20109 10.6273 1.63527C13.9806 2.07675 19.0702 15.9019 19.0938 19.0113L30.8576 20.5601C31.6852 17.5627 40.1795 5.5259 43.5329 5.96738C46.8308 6.40156 45.0629 19.6152 44.4203 24.4181C44.3882 24.6581 44.3589 24.8771 44.3331 25.0725C43.9185 28.2223 40.4414 31.4608 38.8462 32.797C38.824 33.9982 38.7253 34.7475 38.7253 34.7475C38.7253 34.7475 37.7527 42.1347 34.4388 44.9192C33.8413 45.4213 32.7947 46.1662 31.6163 47.0049C30.0988 48.085 28.3629 49.3205 27.0866 50.3929C26.0461 51.2671 23.1262 50.5294 21.839 49.4353C21.4179 49.0774 21.1715 48.6814 21.2229 48.2912C21.1715 48.6814 20.8311 49.0002 20.3317 49.2369C18.8052 49.9605 15.7938 49.9174 15.0151 48.8037C14.0598 47.4375 12.7029 45.7949 11.5167 44.3589C10.5956 43.2439 9.77717 42.2532 9.32999 41.6136C6.84968 38.0663 7.8222 30.679 7.8222 30.679ZM10.6815 45.0355L10.6519 44.9997C9.75894 43.9188 8.92123 42.9047 8.44913 42.2295C7.01386 40.1768 6.63916 37.1595 6.57162 34.8475C6.53686 33.6579 6.58261 32.5869 6.63681 31.8136C6.66396 31.4262 6.69336 31.1117 6.71621 30.8921C6.72764 30.7823 6.73745 30.6961 6.74454 30.6363C6.74808 30.6064 6.75095 30.5831 6.753 30.5668L6.75545 30.5474L6.75618 30.5418L6.75651 30.5393C6.75651 30.5393 6.75657 30.5388 7.8222 30.679C6.75657 30.5388 6.7566 30.5386 6.7566 30.5386L6.75684 30.5367L6.75726 30.5336L6.75856 30.524L6.76305 30.4921C6.76691 30.4652 6.77254 30.4271 6.78011 30.3784C6.79524 30.2812 6.81818 30.1418 6.85038 29.9655C6.89711 29.7097 6.96346 29.3756 7.05398 28.9794C6.44719 28.0814 5.63618 26.7702 4.97647 25.3072C4.22381 23.638 3.59688 21.6184 3.84391 19.742C3.86946 19.548 3.89768 19.33 3.92883 19.0895L3.93089 19.0736C4.24158 16.6746 4.83091 12.1241 5.76214 8.21732C6.22638 6.26973 6.79206 4.40858 7.48428 3.04C7.8286 2.35927 8.23948 1.72824 8.74241 1.27277C9.26142 0.802724 9.95085 0.462123 10.7676 0.569645C11.5105 0.66746 12.1579 1.10578 12.6834 1.59271C13.2268 2.09617 13.7532 2.75798 14.2526 3.49814C15.2533 4.98154 16.2348 6.91465 17.095 8.8945C17.9581 10.881 18.7153 12.9524 19.2602 14.7319C19.6413 15.9766 19.9397 17.1447 20.0804 18.0571L30.1516 19.383C30.5237 18.5381 31.1142 17.4871 31.8045 16.3834C32.7914 14.8055 34.0589 13.0007 35.4068 11.3053C36.7501 9.61554 38.1984 8.00231 39.549 6.82848C40.2229 6.24278 40.9027 5.73978 41.5579 5.3941C42.1915 5.05978 42.9302 4.80394 43.6732 4.90176C44.4899 5.00928 45.0677 5.51671 45.4474 6.10507C45.8153 6.67519 46.0488 7.39106 46.2052 8.13771C46.5197 9.63881 46.5844 11.583 46.5287 13.5843C46.4171 17.599 45.8085 22.1471 45.4878 24.5447L45.485 24.5651C45.4531 24.8037 45.4242 25.02 45.3988 25.2128C45.1517 27.0892 44.0235 28.8777 42.8644 30.2952C41.8485 31.5376 40.7258 32.5943 39.9073 33.3047C39.8922 33.7108 39.8698 34.0506 39.8487 34.3098C39.8342 34.4884 39.8203 34.629 39.8097 34.7269C39.8044 34.7758 39.8 34.8141 39.7968 34.8411L39.7928 34.8731L39.7916 34.8826L39.7912 34.8858L39.791 34.8876C39.791 34.8876 39.791 34.8878 38.7253 34.7475C39.7909 34.8878 39.7909 34.8883 39.7909 34.8883L39.7908 34.889L39.7898 34.8965L39.7872 34.9158C39.7849 34.9321 39.7816 34.9554 39.7773 34.9852C39.7687 35.0448 39.7559 35.1305 39.7385 35.2396C39.7037 35.4576 39.6507 35.769 39.5767 36.1502C39.4289 36.9112 39.1959 37.9576 38.8544 39.0976C38.1908 41.3133 37.0479 44.1308 35.1303 45.7421C34.4995 46.2721 33.4278 47.0349 32.2855 47.8479L32.2396 47.8806C30.711 48.9685 29.0143 50.177 27.778 51.2158C27.1286 51.7614 26.2474 51.8726 25.5262 51.8509C24.7614 51.8279 23.9398 51.6489 23.1963 51.3826C22.4578 51.1181 21.7246 50.7416 21.1669 50.2745C21.1069 50.2243 21.0452 50.1698 20.9833 50.111C20.9083 50.1517 20.8346 50.1885 20.7637 50.2215C20.1041 50.5283 19.2984 50.7021 18.5166 50.7665C17.7295 50.8313 16.8896 50.7916 16.1449 50.6159C15.4426 50.4502 14.6202 50.1147 14.1342 49.4196C13.2112 48.0995 11.8893 46.4977 10.6967 45.054L10.6902 45.0464L10.6825 45.0366L10.6815 45.0355Z" fill="#1A1A1A"/>
<path d="M18.6972 24.7897C17.5775 24.3803 16.3999 24.8081 15.8172 25.8357C15.0635 27.165 20.6754 26.8312 19.7774 25.6001C19.4685 25.1766 19.1955 24.9718 18.6972 24.7897Z" fill="#1A1A1A"/>
<mask id="mask0_209_205" style="mask-type:alpha" maskUnits="userSpaceOnUse" x="8" y="28" width="12" height="10">
<path d="M8.89282 33.5672C8.49765 36.5687 8.54683 34.6494 11.5484 35.0445C16.9832 35.76 19.0469 40.433 19.7624 34.9982C20.1576 31.9966 18.0447 29.243 15.0431 28.8479C12.0416 28.4527 9.28798 30.5656 8.89282 33.5672Z" fill="black"/>
</mask>
<g mask="url(#mask0_209_205)">
<circle cx="5.48169" cy="5.48169" r="5.48169" transform="matrix(-0.991445 -0.130526 -0.130526 0.991445 20.4779 29.5634)" fill="#1A1A1A"/>
<ellipse cx="5.97113" cy="5.88725" rx="5.97113" ry="5.88725" transform="matrix(-0.92388 0.382683 0.382683 0.92388 17.772 28.6147)" fill="#EBEBEB"/>
<circle cx="3.52394" cy="3.52394" r="3.52394" transform="matrix(-0.991445 -0.130526 -0.130526 0.991445 20.12 32.2809)" fill="#1A1A1A"/>
</g>
<path d="M29.745 26.2442C30.9325 26.1387 31.9592 26.8566 32.2561 28C32.6401 29.4791 27.3058 27.7042 28.4918 26.7475C28.8998 26.4184 29.2165 26.2912 29.745 26.2442Z" fill="#1A1A1A"/>
<mask id="mask1_209_205" style="mask-type:alpha" maskUnits="userSpaceOnUse" x="25" y="31" width="12" height="8">
<path d="M36.9433 37.2601C36.5481 40.2617 36.9974 38.395 33.9958 37.9999C28.561 37.2843 25.3582 41.2639 26.0737 35.8291C26.4688 32.8276 29.2224 30.7147 32.224 31.1099C35.2255 31.505 37.3384 34.2586 36.9433 37.2601Z" fill="black"/>
</mask>
<g mask="url(#mask1_209_205)">
<circle cx="31.5085" cy="36.5446" r="5.48169" transform="rotate(7.5 31.5085 36.5446)" fill="#1A1A1A"/>
<ellipse cx="30.802" cy="38.4841" rx="5.97113" ry="5.88725" transform="rotate(37.5 30.802 38.4841)" fill="#EBEBEB"/>
<circle cx="29.4652" cy="37.0656" r="3.52394" transform="rotate(7.5 29.4652 37.0656)" fill="#1A1A1A"/>
</g>
<path d="M21.9839 42.5094C21.9839 42.5094 24.1518 42.0037 24.9345 42.8979C25.8572 43.9519 23.0842 45.5549 21.6085 45.3607L21.9839 42.5094Z" fill="#1A1A1A"/>
<path d="M21.9839 42.5094C21.9839 42.5094 20.0208 41.4598 19.0333 42.121C17.8692 42.9003 20.1329 45.1664 21.6085 45.3607L21.9839 42.5094Z" fill="#1A1A1A"/>
</svg>
