<svg width="79" height="55" viewBox="0 0 79 55" fill="none" xmlns="http://www.w3.org/2000/svg">
<path d="M19.5977 -17.8515C17.6345 -17.6061 15.8765 -7.81803 15.716 -7.23746C11.0839 9.51986 3.96922 27.7452 2.10482 45.5241M2.10482 45.5241C1.80849 48.35 1.64479 51.1646 1.64479 53.9603C1.64479 54.3018 1.29444 52.3533 1.09893 51.4735C0.757374 49.9366 1.35086 47.6691 2.10482 45.5241ZM2.10482 45.5241C2.70915 43.8048 3.41657 42.1642 3.82826 41.0414C7.57534 30.8221 14.3236 20.1012 23.8434 14.4759C31.7401 9.80966 23.8458 14.5032 21.7812 17.0839M5.40521 37.8269C7.51082 37.5929 8.30919 35.4555 10.1361 34.6123C18.0439 30.9625 16.5829 37.5544 14.6849 42.1938C12.9892 46.3389 14.9428 51.9055 18.506 46.5607M41.4324 11.6253C41.3207 12.6309 40.8568 13.2012 40.3407 14.0513C36.7266 20.004 35.019 27.9987 32.7592 34.4304C31.8705 36.9597 29.9991 42.203 28.819 45.782M28.819 45.782C27.8177 48.8189 27.3143 50.6576 28.3316 48.6229C29.001 47.2842 29.59 46.4498 28.819 45.782ZM28.819 45.782C28.6941 45.6738 28.5334 45.5699 28.3316 45.469M40.3407 3.98314C39.158 3.98314 45.6882 1.93116 46.2239 2.46684C46.8111 3.05402 45.9437 4.15095 45.1011 4.47316M45.1011 4.47316C44.8036 4.58689 44.5093 4.60411 44.283 4.46836C43.9858 4.29 44.4644 4.33313 45.1011 4.47316ZM45.1011 4.47316C45.7534 4.61665 46.5716 4.86188 46.8911 5.07487M59.9919 12.717C59.9919 16.0525 57.5479 19.6813 56.5954 22.7852C55.7529 25.5307 54.5271 30.2966 53.3088 34.8675M53.3088 34.8675C51.1804 42.8532 49.0746 50.2438 49.0746 45.2264C49.0746 41.8177 50.9834 38.1857 53.3088 34.8675ZM53.3088 34.8675C55.253 32.0932 57.4883 29.5382 59.1428 27.5161C63.7937 21.8316 68.6419 18.101 74.4271 14.0514C75.0059 13.6462 77.7969 15.0041 77.217 15.7496C76.5964 16.5475 75.7782 16.5819 75.2762 17.0839" stroke="#1A1A1A" stroke-width="2" stroke-linecap="round"/>
</svg>
