<svg width="30" height="30" viewBox="0 0 30 30" fill="none" xmlns="http://www.w3.org/2000/svg">
<rect width="30" height="30" fill="#1A1A1A"/>
<path d="M7 20.535C11.0315 16.7903 15.2724 13.2577 19.4757 9.72078C20.5855 8.78689 21.5223 7.48953 22.8811 7.01722C23.3391 6.85804 22.3446 7.8439 22.0822 8.26119C20.1747 11.2951 18.0265 14.1565 16.0058 17.1099C15.0665 18.4828 14.1467 19.8705 13.2379 21.2648C12.8832 21.8089 11.6998 23.2105 12.2937 22.9732C12.729 22.7992 13.2196 22.219 13.5687 21.92C14.5727 21.0601 15.5976 20.2622 16.6675 19.4901C18.2978 18.3134 19.9318 17.178 21.7756 16.3802C23.0464 15.8302 21.7439 18.0261 21.5173 18.4451C20.7263 19.9085 19.4268 21.3326 18.9108 22.9234" stroke="white" stroke-width="2" stroke-linecap="round"/>
</svg>
